<?xml version="1.0" encoding="utf-8"?>
<!-- Generator: Adobe Illustrator 16.0.0, SVG Export Plug-In . SVG Version: 6.00 Build 0)  -->
<!DOCTYPE svg PUBLIC "-//W3C//DTD SVG 1.1//EN" "http://www.w3.org/Graphics/SVG/1.1/DTD/svg11.dtd">
<svg version="1.1" id="Capa_1" xmlns="http://www.w3.org/2000/svg" xmlns:xlink="http://www.w3.org/1999/xlink" x="0px" y="0px"
	 width="300px" height="300px" viewBox="0 0 300 300" enable-background="new 0 0 300 300" xml:space="preserve">
<g>
	<path fill-rule="evenodd" clip-rule="evenodd" fill="#8B4513" stroke="#FFFF00" stroke-miterlimit="10" d="M117.309,171.008
		c1.542,14.394,3.886,27.031,4.032,39.771c0.232,19.845,23.655,34.808,42.095,39.795c3.101,0.84,8.711-1.158,11.922-3.138
		c26.382-16.229,34.156-35.676,25-62.134c-7.614,0.82-15.369,1.65-24.343,2.61c0.21,6.788,0.41,13.502,0.627,20.851
		c-8.952,0.958-17.469,1.87-26.991,2.892c-1.524-14.217-3.036-28.314-4.664-43.525c18.023-1.929,35.706-3.825,53.95-5.779
		c-0.666-6.202-1.216-11.312-1.943-18.117c-16.151,1.73-32.178,3.447-48.195,5.165c-29.117,3.124-58.226,6.32-87.354,9.353
		c-25.333,2.639-44.775-8.513-46.696-26.585c-1.828-17.198,15.159-32.661,39.393-35.462c22.025-2.546,44.067-5.302,66.157-6.893
		c12.13-0.873,16.728-4.241,14.078-13.581c-0.787-2.779-0.267-5.839-0.367-9.596c8.831-0.947,17.287-1.852,26.801-2.872
		c1.529,14.258,3.038,28.348,4.678,43.641c-15.643,1.676-30.909,3.31-46.18,4.948c-20.802,2.235-41.609,4.457-62.408,6.722
		c-7.462,0.812-13.251,3.238-12.416,10.11c0.81,6.641,6.76,8.348,14.279,7.554c44.894-4.75,89.778-9.591,135.645-14.505
		c-2.966-27.671-5.873-54.81-8.844-82.512c-26.695,2.861-53.179,5.699-81.069,8.687c0.718,6.71,1.394,13.029,2.259,21.088
		c-8.61,0.923-15.864,2.004-23.114,2.284c-2.081,0.081-5.776-1.95-5.977-3.365c-1.815-12.863-3.022-25.805-4.448-39.119
		c47.099-5.047,92.679-9.93,139.519-14.949c3.748,34.979,7.434,69.356,11.234,104.834c10.246-1.097,19.266-2.183,28.313-3.012
		c22.38-2.042,41.433,9.653,43.498,26.585c2.05,16.827-13.858,32.547-36.233,35.551c-9.015,1.209-18.097,1.979-28.637,3.107
		c0.491,4.588,0.479,8.149,1.301,11.552c5.812,24.114-5.759,44.441-27.488,61.444c-34.688,27.15-32.166,27.808-73.228,7.747
		c-23.967-11.706-39.232-28.431-39.694-52.331c-0.172-8.834-1.392-17.652-2.919-26.362c-1.233-7.034,1.216-10.622,10.973-10.677
		C105.142,172.755,110.482,171.738,117.309,171.008z M229.15,158.837c9.737-1.044,18.614-1.078,26.712-3.238
		c4.237-1.129,7.107-5.981,10.599-9.155c-4.19-2.738-7.839-6.822-12.715-7.846c-5.118-1.073-11.411,1.081-17.182,1.285
		c-7.578,0.27-10.63,2.874-9.246,8.726C227.993,151.439,228.355,154.33,229.15,158.837z"/>
</g>
</svg>
